<?xml version="1.0" encoding="utf-8"?>
<!-- Generator: Adobe Illustrator 26.0.1, SVG Export Plug-In . SVG Version: 6.00 Build 0)  -->
<svg version="1.1" id="Logga_xA0_Bild_00000015348513212353417740000008272339393833796993_"
	 xmlns="http://www.w3.org/2000/svg" xmlns:xlink="http://www.w3.org/1999/xlink" x="0px" y="0px" viewBox="0 0 392.16 283.44"
	 style="enable-background:new 0 0 392.16 283.44;" xml:space="preserve">
<style type="text/css">
	.st0{fill:#CBCBCB;}
	.st1{fill:#FFFFFF;}
	.st2{fill:#CACACA;}
	.st3{fill:#FCFCFC;}
</style>
<g>
	<g>
		<path class="st0" d="M258.49,215.79c-2.42,2.52-4.74,5.12-7.54,7.27c-2.93,2.25-5.65,4.77-8.61,6.99
			c-1.83,1.37-3.91,2.41-5.89,3.6c-1.6,0.96-3.15,2.04-4.83,2.86c-3.38,1.68-6.8,3.3-10.27,4.79c-1.66,0.72-3.57,0.88-5.19,1.67
			c-1.49,0.72-2.99,1.16-4.58,1.49c-2.78,0.57-4.81,1.19-6.95,1.57c-8.48,1.51-15.94,1.74-15.94,1.74
			c-4.33,0.13-7.72-0.09-14.51-0.54c-8.21-0.54-11.6-1.13-12.69-1.36c-3.1-0.66-6.18-1.44-9.24-2.28c-1.95-0.54-3.85-1.24-5.74-1.95
			c-1.72-0.64-3.42-1.33-5.08-2.1c-2.42-1.11-4.85-2.21-7.17-3.5c-2.6-1.45-5.08-3.1-7.61-4.67c-0.68-0.42-1.41-0.78-2.04-1.26
			c-2.95-2.28-5.95-4.52-8.8-6.93c-2.18-1.84-4.26-3.83-6.23-5.9c-2.48-2.61-4.91-5.28-7.18-8.08c-1.87-2.31-3.52-4.79-5.16-7.27
			c-2.1-3.18-4.14-6.41-6.12-9.67c-0.84-1.38-1.43-2.91-2.16-4.36c-0.86-1.7-1.84-3.35-2.6-5.1c-1.25-2.85-2.48-5.72-3.49-8.65
			c-1.11-3.21-2-6.5-2.92-9.78c-0.64-2.31-1.2-4.64-1.74-6.97c-0.37-1.57-0.61-3.18-0.97-4.75c-0.35-1.52-0.77-3.03-1.15-4.55
			c0.24-0.35,0.47-0.71,0.77-1.15c2.24,1.56,4.38,3.08,6.54,4.54c0.41,0.27,0.95,0.56,1.4,0.52c1.69-0.16,3.27-0.66,4.42-2.05
			c0.08,0.22,0.19,0.44,0.24,0.67c0.23,0.93,1.02,1.52,1.86,1.26c1.05-0.33,0.77-1.08,0.46-1.82c-0.12-0.28,0-0.71-0.18-0.91
			c-0.4-0.47-0.9-1.17-1.38-1.18c-0.57-0.02-1.42,0.36-1.21,1.36c-3.23-2.1-6.47-4.2-9.71-6.31c0.94-1.96,1.94-3.91,2.83-5.91
			c1.68-3.79,3.29-7.6,4.93-11.41c0.06,0.44,0.13,0.88,0.19,1.31c0.62-0.11,1.08-0.19,1.55-0.27c0.01,4.34,1.77,6.69,5.8,7.78
			c2.74,0.74,5.37,0.53,7.89-0.82c0.3,2.96,0.55,5.93,0.91,8.89c0.37,3.09,0.76,6.18,1.29,9.25c0.32,1.85,0.89,3.66,1.43,5.47
			c0.08,0.26,0.58,0.56,0.89,0.56c5.55,0.03,11.1,0.02,16.65,0.03c0.98,0,0.92-0.69,0.92-1.33c0-4.27-0.01-8.55,0.01-12.82
			c0-0.55,0.12-1.1,0.19-1.65c0,5.3,0,10.6,0,15.92c-8.2,0-16.26,0-24.43,0c0-0.54,0-0.97,0-1.4c0-4.6,0.01-9.2,0-13.8
			c0-1.45-0.69-2.26-1.89-2.28c-1.24-0.02-1.97,0.82-1.97,2.32c0,11.44,0,22.88,0,34.32c0,1.46,0.78,2.38,1.97,2.36
			c1.19-0.02,1.89-0.92,1.89-2.43c0-4.72,0-9.44,0.01-14.16c0-0.43,0-0.85,0-1.36c2.34,0,4.53,0,6.72,0
			c0.66,1.53,1.51,3.01,1.93,4.61c0.46,1.77,1.3,3.2,2.54,4.48c0.22,0.23,0.34,0.57,0.46,0.87c0.15,0.4,0.2,0.85,0.38,1.22
			c0.76,1.56,1.47,3.15,2.36,4.63c2,3.34,4.04,6.67,6.17,9.92c1.36,2.07,2.82,4.09,4.42,5.96c1.45,1.69,3.35,3.01,4.69,4.77
			c1.18,1.55,2.59,2.83,4.02,4.04c2.66,2.25,5.46,4.33,8.31,6.34c1.57,1.11,3.5,1.74,5.01,2.93c2.57,2.02,5.76,2.59,8.53,4.06
			c3.17,1.68,6.54,2.52,9.95,3.36c2.11,0.52,4.23,0.96,6.35,1.44c0.19,0.04,0.38,0.16,0.57,0.17c6.13,0.15,12.27,0.38,18.41,0.38
			c1.74,0,3.47-0.67,5.21-1c1.19-0.23,2.42-0.31,3.59-0.61c3.35-0.86,6.71-1.7,10-2.74c1.37-0.43,2.59-1.35,3.88-2.04
			c4.91,3.06,8.6,0.84,12.07-3.13c1.07,1.19,2,2.23,2.95,3.26c0.4,0.43,0.87,0.79,1.43,0.23c0.61-0.61,0.06-1-0.33-1.39
			c-1.01-1-2.03-1.98-3.11-3.02c0.8-0.85,1.49-1.57,2.15-2.31c0.43-0.48,1.23-0.98,0.45-1.67c-0.76-0.67-1.2,0.17-1.65,0.61
			c-0.7,0.7-1.37,1.43-2.23,2.34c-0.27-0.37-0.47-0.66-0.68-0.95c2.99-2.27,6.12-4.39,8.93-6.86c2.29-2.01,4.29-4.39,6.26-6.73
			c2.15-2.55,4.14-5.23,6.16-7.88c1.16-1.53,2.27-3.11,3.34-4.71c0.48-0.72,0.8-1.55,1.2-2.32c4.01-0.19,7.38-1.75,10.18-5.14
			c0,1.21-0.13,2.07,0.04,2.87c0.14,0.63,0.51,1.4,1.02,1.72c1.28,0.8,2.74-0.18,2.76-1.79c0.03-3.36-0.09-6.72,0.04-10.07
			c0.18-4.4-0.95-8.28-3.97-11.56c0.73-3.44,1.59-6.86,2.17-10.32c0.93-5.55,1.38-11.16,1.18-16.78c-0.14-4.02-0.34-8.06-0.77-12.06
			c-0.39-3.62-1.01-7.23-1.76-10.8c-0.8-3.8-1.76-7.57-2.85-11.29c-1.03-3.5-2.28-6.93-3.53-10.36c-1.14-3.12-2.32-6.22-3.65-9.26
			c-0.79-1.81-1.92-3.48-2.88-5.23c-0.63-1.15-1.14-2.36-1.82-3.47c-1.25-2.04-2.59-4.04-3.89-6.05c-0.66-1.03-1.27-2.09-1.98-3.08
			c-1.65-2.31-3.34-4.6-5.03-6.88c-1.27-1.73-2.11-3.64-2.06-5.8c0.09-3.91,0-7.86,0.58-11.71c0.63-4.16,1.93-7.29,6.81-9.07
			c1.11-0.4,2.16-0.87,3.25-0.62c2.77,0.64,5.65,1.18,7.42,3.81c0.18,0.26,0.4,0.5,0.61,0.74c1.82,2.05,3.66,4.08,5.46,6.14
			c0.51,0.58,0.92,1.26,1.35,1.91c1.58,2.36,3.15,4.74,4.75,7.1c0.78,1.14,1.63,2.23,2.42,3.37c0.47,0.68,0.92,1.39,1.33,2.12
			c1.32,2.34,2.62,4.69,3.94,7.03c0.86,1.52,2,2.94,2.58,4.56c0.96,2.63,2.78,4.82,3.41,7.65c0.47,2.07,1.85,3.93,2.73,5.92
			c0.59,1.33,1.05,2.72,1.53,4.1c0.94,2.66,1.88,5.31,2.78,7.98c0.3,0.9,0.49,1.83,0.69,2.76c0.48,2.21,0.92,4.42,1.42,6.62
			c0.33,1.47,0.83,2.91,1.09,4.4c0.57,3.32,1.06,6.65,1.53,9.99c0.46,3.3,0.87,6.6,1.29,9.9c0.07,0.55,0.14,1.11,0.14,1.67
			c0.01,7.08,0.13,14.16-0.05,21.24c-0.07,2.86-0.83,5.69-1.24,8.54c-0.1,0.67-0.09,1.35-0.13,2.02c-4.23-1.17-8.33-0.95-12.25,1.16
			c0.26-1.05,0.69-2.09,0.73-3.15c0.02-0.58-0.49-1.37-0.99-1.74c-0.5-0.36-1.26-0.17-1.56,0.59c-0.22,0.56-0.41,1.13-0.56,1.72
			c-0.13,0.49-0.06,1.05-0.27,1.49c-0.72,1.51-0.47,1.99,1.2,2.08c-3.88,3.27-5.33,7.52-5.02,12.48c0.35,5.44,3.8,10.11,8.79,11.74
			c1.05,0.34,2.17,0.49,3.25,0.72c-0.9-0.07-1.44,0.3-1.79,1.17c-0.62,1.54-1.37,3.03-2.07,4.54c-1.07-0.87-2.18-1.71-3.2-2.63
			c-0.88-0.8-2.02-0.99-2.79-0.33c-0.76,0.65-0.8,1.7,0.14,2.61c1.31,1.26,2.77,2.37,4.16,3.54c-0.97,1.81-1.87,3.65-2.92,5.41
			c-0.63,1.06-0.95,2.12-0.94,3.36c0.04,4.85-0.01,9.71-0.02,14.57c-0.07-0.51-0.19-1.01-0.19-1.52c0-5.4,0.02-10.79,0.01-16.19
			c0-0.71,0.28-1.75-0.88-1.73c-1.14,0.02-0.84,1.06-0.84,1.77c-0.02,5.71-0.02,11.43-0.03,17.14c-0.06-0.59-0.18-1.18-0.18-1.77
			c-0.02-3.35-0.01-6.69-0.25-10.14c-0.21,0.3-0.42,0.59-0.63,0.89c-1.4,2.01-2.86,3.99-4.17,6.06c-0.5,0.8-0.77,1.8-0.94,2.74
			c-0.16,0.89-0.06,1.83-0.08,2.74c-0.07-0.51-0.19-1.01-0.19-1.52c0-5.4,0.02-10.79,0.01-16.19c0-0.71,0.28-1.75-0.88-1.73
			c-1.14,0.02-0.84,1.06-0.84,1.77c-0.02,5.71-0.02,11.43-0.03,17.14c-0.11-0.25-0.23-0.49-0.46-0.99
			c-1.25,1.69-2.41,3.26-3.56,4.82c0.01-2.34-0.02-4.69,0.05-7.03c0.12-3.73-1.37-6.52-4.68-8.3c0.48-0.54,0.97-1.07,1.49-1.65
			c-0.74-0.49-1.36-0.89-1.97-1.3c-0.82,0.76-1.58,1.47-2.34,2.18c-0.28,0-0.56,0.01-0.84,0.01c-4.06,0.05-7.22,2.49-8.15,6.29
			c-0.93,3.8,0.72,7.61,4.06,9.38c3.47,1.85,7.51,1.12,10.25-1.83c0.07-0.08,0.19-0.11,0.3-0.16
			C257.92,213.85,258.2,214.82,258.49,215.79z M279.48,129.69c0.17-0.56,0.36-1.12,0.51-1.69c0.39-1.48,0.07-2.14-1.25-2.87
			c-0.27-0.15-0.4-0.54-0.61-0.81c-0.17-0.22-0.37-0.41-0.68-0.76c-0.4,1.57-0.92,2.69-0.46,4.28
			C277.49,129.59,277.54,130.07,279.48,129.69z M267.62,174.7c-0.46,0.71-0.85,1.29-1.22,1.89c-0.84,1.37-0.75,1.72,0.5,2.46
			c0.71,0.42,1.13,0.17,1.72-0.36c1.83-1.62,1.72-2.89-0.46-3.8C268,174.82,267.81,174.77,267.62,174.7z M127.62,215.32
			c1.16,0.9,2.31,1.79,3.66,2.84c0.46-0.7,0.87-1.32,1.31-1.97c-0.58-0.47-1.06-0.82-1.5-1.23
			C129.54,213.53,129.2,213.54,127.62,215.32z M108.99,195.5c-0.09,0.06-0.18,0.13-0.27,0.19c1.06,1.27,2.12,2.54,3.16,3.79
			c0.66-0.43,1.22-0.79,1.85-1.19c-0.21-0.34-0.43-0.67-0.61-1.01c-0.57-1.09-1.14-2.08-2.7-1.5
			C110.04,195.93,109.48,195.61,108.99,195.5z M237.52,217.17c-0.28-0.57-0.5-1.08-0.78-1.56c-0.29-0.5-0.66-0.83-1.24-0.33
			c-0.78,0.67-1.56,1.33-2.45,2.08c0.52,0.52,1.02,1.42,1.57,1.44c0.67,0.03,1.39-0.65,2.07-1.05
			C236.96,217.59,237.21,217.39,237.52,217.17z"/>
		<path class="st0" d="M77.04,107.04c0.16-0.31,0.39-0.6,0.46-0.93c0.72-3.54,1.34-7.1,2.13-10.62c0.64-2.85,1.47-5.65,2.25-8.47
			c0.55-1.98,1.08-3.97,1.76-5.91c1.12-3.22,2.31-6.42,3.56-9.59c0.65-1.64,1.52-3.19,2.26-4.8c0.83-1.8,1.55-3.67,2.47-5.42
			c1.43-2.73,2.92-5.44,4.51-8.08c1.93-3.22,3.97-6.37,6-9.53c0.72-1.11,1.56-2.14,2.33-3.21c1.46-2.03,2.86-4.1,4.37-6.09
			c1.08-1.42,2.27-2.76,3.45-4.11c1.69-1.94,3.4-3.87,5.12-5.79c1.39-1.55,3.01-2.51,5.24-2.2c1.22,0.17,2.49,0.14,3.71,0.01
			c2.8-0.29,4.54,1.33,6.07,3.28c1.12,1.43,1.75,3,1.73,4.95c-0.02,2.49,0.13,5.05,0.75,7.44c0.96,3.76-0.03,7.02-1.87,10.13
			c-0.94,1.59-2.27,2.96-3.41,4.44c-0.88,1.15-1.77,2.31-2.6,3.5c-0.61,0.86-1.13,1.78-1.71,2.67c-1.71,2.65-3.27,5.43-5.2,7.92
			c-1.69,2.18-2.65,4.68-3.86,7.06c-1.35,2.66-2.43,5.45-3.62,8.19c-0.8,1.84-1.59,3.69-2.37,5.54c-0.39,0.94-0.78,1.88-1.07,2.85
			c-0.95,3.16-1.87,6.33-2.78,9.5c-0.07,0.24,0.04,0.52,0.07,0.79c-1.79,2.18-3.6,4.35-5.37,6.54c-4.14,5.11-6.96,11.15-11.44,16.01
			c-0.63,0-1.26,0.01-1.89,0.01c1.72-4.21,3.47-8.4,5.13-12.63c0.28-0.7,0.47-1.63,0.24-2.29c-0.65-1.83-2.08-2.98-3.94-3.55
			c-0.65-0.2-1.13-0.03-1.32,0.77c-0.22,0.97-0.6,1.9-0.87,2.86c-1.8,6.53-4.48,12.62-8.87,17.85c-0.74,0.88-1.6,1.65-2.41,2.48
			c0-3.93,0-7.86,0.01-11.79c0-1.18,0.04-2.35,0.06-3.53c0.36-0.79,0.66-1.61,1.08-2.37C77.95,109.58,77.94,108.3,77.04,107.04z"/>
		<path class="st1" d="M154.72,101.5c-1.75,0.82-3.51,1.63-5.26,2.45c-0.36,0.17-0.69,0.46-1.07,0.53c-0.38,0.07-0.8-0.06-1.2-0.1
			c0.11-0.42,0.16-0.87,0.35-1.24c0.11-0.22,0.43-0.34,0.68-0.47c2.5-1.34,5.01-2.64,7.49-4.01c0.48-0.27,1.01-0.7,1.21-1.18
			c1.42-3.51,2.8-7.04,4.11-10.59c0.3-0.81,0.7-1.23,1.46-0.8c1.09,0.62,2.21,1.27,3.12,2.12c1.01,0.94,1.23,2.16,0.55,3.5
			c-0.65,1.27-1.19,2.6-1.77,3.91c3.98-0.35,7.91-0.69,11.8-1.03c0.52,2.44-0.48,3.49-2.59,3.57c-3.38,0.13-6.76,0.46-10.13,0.76
			c-0.36,0.03-0.87,0.32-1.02,0.63c-4.01,8.04-8.38,15.91-11.4,24.41c-0.61,1.71-1,3.54-1.25,5.34c-0.22,1.57,0.66,2.2,2.14,1.57
			c1.19-0.51,2.4-1.16,3.36-2.02c2.99-2.66,5.28-5.85,6.93-9.52c2.88-6.44,7.25-11.5,13.98-14.07c1.67-0.64,3.58-0.84,5.38-0.86
			c2.53-0.04,4.22,2.08,3.83,4.59c-0.15,0.97-0.48,1.95-0.94,2.82c-3.48,6.56-8.94,10.74-15.93,12.97
			c-1.13,0.36-1.29,0.87-1.13,1.88c0.67,4.38,3.36,6.06,7.55,4.59c1.08-0.38,2.13-0.93,3.09-1.55c3.18-2.05,5.64-4.83,7.7-7.96
			c1.16-1.77,2.23-3.6,3.34-5.4c1.09-1.77,2.17-3.54,3.31-5.41c-1.26-1.44-0.77-3.04-0.03-4.51c1.18-2.35,2.52-4.62,3.78-6.91
			c3.3,0.99,4.23,3.56,2.36,6.32c-0.67,0.98-1.33,1.97-1.9,3.11c4.09-0.95,7.93-2.48,11.73-4.69c0.56,0.46,1.35,0.92,1.84,1.59
			c0.34,0.47,0.5,1.32,0.32,1.86c-0.42,1.19-0.97,2.38-1.71,3.4c-2.4,3.29-4.96,6.47-7.36,9.77c-1.33,1.84-2.52,3.79-3.64,5.76
			c-0.51,0.91-1.03,2.1-0.04,3c0.94,0.85,2.12,0.56,3.16,0.06c3.11-1.5,5.47-3.84,7.45-6.62c1.74-2.45,3.18-5.04,4.12-7.94
			c1.1-3.38,2.42-6.68,3.58-10.04c0.25-0.71,0.63-0.81,1.25-0.72c2.98,0.43,4.83,3.73,3.42,6.77c0.59-0.42,0.92-0.63,1.22-0.87
			c1.45-1.19,2.82-2.51,4.36-3.55c1.2-0.82,2.58-1.45,3.97-1.91c2.62-0.86,5.02,0.6,5.55,3.31c0.11,0.54-0.03,1.21-0.25,1.73
			c-1.58,3.84-3.33,7.61-4.79,11.49c-0.95,2.52-1.6,5.17-2.21,7.8c-0.37,1.56,0.57,2.29,1.88,1.41c2.2-1.49,4.21-3.25,6.28-4.93
			c0.22-0.18,0.24-0.58,0.4-0.85c0.61-1.07,1.18-2.17,1.88-3.18c1.07-1.53,2.29-2.95,3.35-4.48c3-4.29,5.9-8.65,8.96-12.9
			c1.08-1.51,2.49-2.79,3.91-4.34c1.41,1.04,2.72,1.93,3.94,2.93c0.75,0.61,0.69,1.28-0.07,2.02c-3.63,3.52-5.5,7.79-5.26,12.9
			c0.12,2.48,0.23,4.95,0.42,7.42c0.37,4.89-2.4,8.78-7.08,9.64c-2.77,0.51-5.42-0.04-7.79-1.61c-1.47-0.98-2.3-2.41-2.66-4.13
			c-0.15-0.14-0.29-0.28-0.44-0.42c-0.19,0.39-0.28,0.88-0.57,1.15c-1.35,1.24-2.7,2.49-4.16,3.6c-1.2,0.91-2.62,1.34-4.18,1.15
			c-2.65-0.33-4.32-2.08-4.51-4.76c-0.24-3.41,0.91-6.54,2.09-9.64c1.06-2.8,2.27-5.54,3.29-8.36c0.28-0.79,0.48-2.16,0.07-2.54
			c-0.84-0.75-1.76,0.24-2.49,0.79c-3.57,2.69-6.83,5.8-9.27,9.48c-1.52,2.29-2.16,5.21-2.94,7.93c-0.64,2.25-0.91,4.6-1.34,6.91
			c-2.48-0.05-4.25-1.92-3.99-4.31c0.17-1.5,0.46-2.99,0.76-4.83c-0.61,0.75-1.02,1.25-1.43,1.75c-2.2,2.68-4.61,5.12-7.82,6.58
			c-1.04,0.48-2.17,0.85-3.29,1.04c-3.73,0.64-6.23-1.7-5.97-5.49c0.16-2.37,0.98-4.54,2.29-6.48c1.72-2.55,3.56-5.02,5.33-7.53
			c0.92-1.3,1.81-2.61,2.92-4.22c-0.78,0.08-1.22,0.12-1.66,0.18c-1.54,0.2-3.08,0.38-4.61,0.64c-0.4,0.07-0.88,0.36-1.1,0.69
			c-2.06,3.14-4.08,6.31-6.1,9.47c-2.06,3.21-4.29,6.26-7.1,8.87c-3.78,3.5-8.24,4.6-13.21,3.79c-3.97-0.65-6.39-3.52-6.57-7.54
			c-0.02-0.38,0-0.76,0-1.52c-0.46,0.6-0.69,0.89-0.91,1.19c-1.72,2.38-3.54,4.69-6.02,6.3c-1.28,0.83-2.76,1.46-4.24,1.83
			c-2.46,0.62-4.47-0.66-4.85-3.17c-0.26-1.74,0-3.56,0.04-5.34c0.01-0.31,0.09-0.62-0.03-1.03c-0.27,0.37-0.51,0.76-0.82,1.09
			c-2.06,2.21-4.05,4.52-6.25,6.58c-1.45,1.36-3.33,2.02-5.41,1.85c-2.69-0.21-4.5-2.02-4.63-4.73c-0.05-0.99-0.01-1.98-0.01-3
			c-0.17,0.19-0.4,0.49-0.66,0.73c-1.89,1.77-3.61,3.8-5.73,5.24c-5.36,3.64-11.12,0.63-11.28-5.85c-0.05-1.79,0.31-3.68,0.9-5.39
			c2.12-6.19,5.83-11.26,11.31-14.92c2.71-1.81,5.69-2.9,9.05-2.46c2.94,0.38,4.29,1.51,4.93,4.4c0.26,1.2,0.31,2.46,0.29,3.69
			c0,0.37-0.55,0.74-0.84,1.11c-0.28-0.32-0.69-0.59-0.8-0.96c-0.21-0.68-0.21-1.42-0.36-2.12c-0.59-2.81-2.25-3.9-5.07-3.29
			c-2.1,0.45-3.85,1.59-5.31,3.1c-4.04,4.18-6.73,9.09-7.77,14.85c-0.1,0.55-0.12,1.12-0.09,1.67c0.18,3.1,2.42,4.39,5.19,2.95
			c0.8-0.42,1.62-0.95,2.21-1.62c2.26-2.58,4.63-5.1,6.56-7.91c1.03-1.51,1.31-3.56,1.81-5.4c0.37-1.36,0.61-1.67,1.82-0.95
			c1.17,0.69,2.21,1.67,3.14,2.67c0.69,0.74,0.67,1.72,0.27,2.71c-0.93,2.29-1.85,4.59-2.67,6.93c-0.35,1-0.55,2.09-0.63,3.15
			c-0.11,1.42,0.61,1.99,1.93,1.43c1.23-0.52,2.48-1.19,3.46-2.08c1.44-1.31,2.76-2.79,3.92-4.35c1.94-2.59,3.5-5.4,4.81-8.39
			c1.96-4.45,4.23-8.77,6.37-13.15c0.17-0.34,0.33-0.69,0.49-1.04C154.83,101.64,154.78,101.57,154.72,101.5z M167.6,123.09
			c0.37,0,0.49,0.03,0.59,0c6.41-2.03,11.36-5.85,14.51-11.86c0.29-0.55,0.48-1.19,0.56-1.82c0.19-1.46-0.7-2.37-2.13-2.06
			c-1.11,0.23-2.28,0.59-3.23,1.19C172.56,111.94,169.63,117.09,167.6,123.09z M243.3,119.59c1.96,0.57,3.57,2.97,3.59,5.22
			c-2.07-1.12-4.02-0.73-5.87,0.46c-1.28,0.82-1.94,2.02-1.68,3.57c0.33,1.99,2.37,3.56,4.84,3.8c1.95,0.19,3.65-0.86,4.26-2.93
			c0.37-1.27,0.49-2.67,0.46-4c-0.05-2.03-0.38-4.05-0.48-6.08c-0.15-3.1-0.04-6.18,1.25-9.11c-0.12-0.05-0.24-0.09-0.35-0.14
			C247.31,113.43,245.32,116.49,243.3,119.59z"/>
		<path class="st1" d="M77.04,107.04c0.9,1.26,0.91,2.54,0.18,3.89c-0.41,0.76-0.72,1.58-1.08,2.37c-1.44,3.29-2.98,6.54-4.27,9.89
			c-0.74,1.92-1.2,3.97-1.55,6c-0.28,1.67,0.67,2.36,2.24,1.65c1.25-0.57,2.34-1.46,3.5-2.21c0.81-0.82,1.67-1.6,2.41-2.48
			c4.39-5.23,7.07-11.32,8.87-17.85c0.26-0.96,0.64-1.89,0.87-2.86c0.19-0.8,0.67-0.97,1.32-0.77c1.86,0.57,3.29,1.71,3.94,3.55
			c0.23,0.66,0.03,1.59-0.24,2.29c-1.67,4.23-3.41,8.42-5.13,12.63c-0.35,0.85-0.69,1.7-1.04,2.55c-1.64,3.8-3.25,7.62-4.93,11.41
			c-0.88,2-1.88,3.94-2.83,5.91c3.25,2.11,6.48,4.21,9.71,6.31c0.07,0.21,0.14,0.42,0.2,0.63c-1.14,1.39-2.72,1.89-4.42,2.05
			c-0.45,0.04-0.99-0.24-1.4-0.52c-2.17-1.47-4.3-2.98-6.54-4.54c-0.3,0.45-0.54,0.8-0.77,1.15c-0.79,0.96-1.53,1.95-2.37,2.86
			c-5.5,5.92-12.29,7.88-20.15,6.52c-0.04-0.01-0.08-0.01-0.12-0.02c-6.68-1.62-7.59-6.57-5.1-11.42c1.2-2.34,3.14-4.01,5.43-5.28
			c0.38-0.21,0.77-0.41,1.21-0.65c-4.1-3.1-4.04-7.46-3.5-11.79c0.94-7.52,3.54-14.59,6.76-21.39c3.33-7.03,7.03-13.89,10.57-20.83
			c0.16-0.31,0.33-0.61,0.66-1.23c-0.64,0.45-0.99,0.67-1.32,0.92c-10.72,8.3-19.95,18.08-28.46,28.59
			c-2.95,3.64-5.41,7.48-6.97,11.91c-1.22,3.46-2.66,6.85-3.95,10.28c-0.39,1.03-0.61,2.13-0.97,3.44c-0.58-0.43-1.12-0.78-1.6-1.21
			c-3.81-3.45-4.11-4.06-2.15-8.73c4.32-10.31,8.82-20.54,13.25-30.81c1.93-4.47,3.84-8.95,5.75-13.44
			c0.24-0.57,0.37-1.19,0.66-2.17c-0.85,0.32-1.43,0.42-1.88,0.73c-1.08,0.75-2.19,1.5-3.12,2.42
			c-6.83,6.75-12.69,14.27-17.57,22.55c-0.68,1.16-1.18,2.42-1.84,3.79c-0.33-0.26-0.71-0.47-0.96-0.78
			c-0.5-0.62-0.96-1.27-1.4-1.94c-1.42-2.16-1.49-4.22,0.15-6.4c5.87-7.82,12.49-14.89,20.44-20.63c1.44-1.04,3.07-1.9,4.72-2.56
			c3.17-1.26,6.47,1.26,6.08,4.69c-0.24,2.12-0.67,4.29-1.42,6.28c-2.34,6.23-4.87,12.38-7.41,18.79c0.42-0.42,0.75-0.7,1.01-1.04
			c5.04-6.53,10.29-12.87,16.23-18.61C61.59,86.25,66.77,82,72.69,78.7c0.97-0.54,1.75-0.54,2.48,0.18
			c1.16,1.15,2.29,2.33,3.33,3.58c0.24,0.28,0.28,1.06,0.06,1.33c-3.87,4.88-6.79,10.35-9.71,15.82
			c-4.24,7.94-8.05,16.07-10.66,24.71c-0.9,2.99-1.66,6.03-1.51,9.18c0.05,1.06,0.27,2.15,0.66,3.13c0.61,1.53,1.93,2.09,3.57,1.98
			c1.51-0.1,3.03-0.04,4.55-0.02c3.04,0.04,5.87,1,8.85,2.06c0.59-1.21,1.17-2.41,1.76-3.62c1.66-3.11,2.97-6.36,3.96-9.76
			c-1.39,1.5-2.78,3-4.18,4.5c-1.6,0.94-3.11,2.16-4.83,2.76c-3.37,1.16-6.01-0.76-5.95-4.34c0.04-2.2,0.42-4.46,1.08-6.56
			c1.69-5.32,3.62-10.56,5.45-15.83c0.25-0.72,0.51-1.43,0.66-2.17c0.22-1.1,0.91-1.31,1.72-0.82
			C75.07,105.45,76.03,106.29,77.04,107.04z M72.26,144.2c-4.56-1.8-9.05-2.35-13.68-1.48c-2.9,0.54-5.66,1.44-7.81,3.61
			c-3.19,3.23-2.04,7.88,2.29,9.18c3.29,0.99,6.47,0.59,9.49-1.06C66.85,152.1,69.63,148.33,72.26,144.2z"/>
		<path class="st1" d="M298.48,163.39c0-0.47-0.16-0.95-0.28-1.41c-1.21-4.6-4.16-7.62-8.52-9.35c-4.23-1.17-8.33-0.94-12.25,1.17
			c-0.49,0.33-0.98,0.65-1.46,0.98c-3.89,3.28-5.34,7.52-5.02,12.49c0.35,5.44,3.8,10.1,8.79,11.74c1.05,0.34,2.17,0.49,3.26,0.72
			c4.96,0.29,8.99-1.35,11.73-5.73c0.92,3.69-0.75,8.56-3.85,10.83c-3.74,2.74-7.72,2.54-11.75,0.61c-1.07-0.87-2.17-1.7-3.2-2.63
			c-0.88-0.8-2.02-0.99-2.79-0.33c-0.76,0.66-0.81,1.71,0.14,2.61c1.31,1.26,2.76,2.37,4.16,3.54c1.99,0.54,3.95,1.31,5.98,1.57
			c7.18,0.91,13.96-3.87,14.83-11.03C298.87,173.97,298.46,168.65,298.48,163.39z M283.21,176.13c-3.9-0.32-7.16-3.21-8.22-7.3
			c-1.47-5.63,1.26-11.2,6.36-12.86c2.67-0.87,5.34-0.83,7.91,0.46c3.63,1.61,5.83,5.5,5.65,9.98
			C294.65,172.81,289.37,177.2,283.21,176.13z"/>
		<path class="st1" d="M107.05,161.56c-2.19,0-4.38,0-6.72,0c0,0.51,0,0.93,0,1.36c0,4.72,0,9.44-0.01,14.16
			c0,1.51-0.71,2.41-1.89,2.43c-1.18,0.02-1.96-0.9-1.97-2.36c0-11.44,0-22.88,0-34.32c0-1.5,0.73-2.34,1.97-2.32
			c1.2,0.02,1.89,0.82,1.89,2.28c0.01,4.6,0,9.2,0,13.8c0,0.43,0,0.86,0,1.4c8.17,0,16.23,0,24.43,0c0-5.32,0-10.62,0-15.92
			c0.57-1.3,1.24-1.74,2.35-1.5c1.22,0.25,1.53,1.14,1.53,2.24c0,11.46,0,22.93,0,34.39c0,1.4-0.75,2.29-1.89,2.32
			c-1.19,0.03-1.97-0.87-1.97-2.34c-0.01-5.15,0-10.3,0-15.61C118.83,161.56,112.94,161.56,107.05,161.56z"/>
		<g>
			<path class="st1" d="M260.86,155.84c3.02,3.27,4.15,7.15,3.97,11.56c-0.14,3.35-0.01,6.71-0.04,10.07
				c-0.02,1.61-1.48,2.58-2.76,1.79c-0.51-0.32-0.88-1.09-1.02-1.72c-0.17-0.79-0.04-1.65-0.04-2.87c-2.8,3.39-6.17,4.94-10.18,5.14
				c-8.13-0.14-12.24-5.63-13.36-10.56c-1.4-6.11,1.11-12.28,6.24-15.36c5.22-3.13,11.98-2.48,16.72,1.6
				C260.54,155.62,260.71,155.73,260.86,155.84z M252.71,176.1c6.95-1.04,10.68-9.35,6.97-15.54c-0.47-0.68-0.88-1.43-1.44-2.04
				c-3.25-3.49-8.64-4.14-12.72-1.59c-4.15,2.6-5.87,8.07-4.06,12.88C243.2,174.39,247.72,176.92,252.71,176.1z"/>
		</g>
		<path class="st1" d="M89.99,123.12c4.48-4.86,7.3-10.91,11.44-16.01c1.78-2.19,3.58-4.36,5.37-6.54c0.35-0.08,0.81-0.35,1.03-0.21
			c1.21,0.75,2.41,1.54,3.53,2.43c0.75,0.6,0.71,1.28-0.05,2.01c-3.63,3.51-5.5,7.78-5.27,12.88c0.1,2.27,0.17,4.55,0.37,6.82
			c0.33,3.79-0.73,6.94-3.93,9.19c-2.52,1.35-5.15,1.56-7.89,0.82c-4.02-1.09-5.78-3.44-5.8-7.78
			C89.2,125.52,89.6,124.32,89.99,123.12z M99.11,124.85c-2.21-1.17-4.16-0.74-6.01,0.47c-1.3,0.85-1.89,2.29-1.6,3.61
			c0.46,2.04,2.58,3.6,5.05,3.72c1.95,0.09,3.64-1.13,4.16-3.27c0.3-1.26,0.4-2.62,0.32-3.91c-0.3-5-1.3-10.02,0.75-14.91
			c-0.11-0.05-0.22-0.1-0.34-0.15c-1.98,3.04-3.97,6.09-6,9.21C97.7,119.86,98.42,121.97,99.11,124.85z"/>
		<path class="st1" d="M308.49,167.08c-0.09,4.17,3.42,8.22,7.7,9.03c3.22,0.61,6.19,0.01,8.88-1.9c1.06-0.76,2.15-0.69,2.78,0.13
			c0.65,0.86,0.4,1.81-0.75,2.61c-8.15,5.72-19.72,2.44-21.9-7.5c-1.27-5.82-0.16-11.18,4.82-14.96c4.25-3.22,9.08-3.53,13.79-1.09
			c4.75,2.46,6.51,6.8,6.51,11.96c0,1.25-0.61,1.71-2.08,1.72c-6.12,0.01-12.24,0-18.35,0
			C309.45,167.08,309.02,167.08,308.49,167.08z M326.7,163.87c-0.3-5.11-4.15-8.67-9.15-8.52c-4.86,0.14-8.94,4.04-8.92,8.52
			C314.65,163.87,320.68,163.87,326.7,163.87z"/>
		<path class="st1" d="M164.48,165.95c-0.02,7.99-5.89,13.83-13.89,13.82c-8.02-0.01-13.86-5.92-13.83-14
			c0.03-7.98,5.91-13.85,13.88-13.84C158.62,151.93,164.51,157.9,164.48,165.95z M160.76,165.85c0-6.02-4.31-10.46-10.13-10.46
			c-5.8,0-10.17,4.49-10.18,10.45c-0.02,5.93,4.37,10.45,10.17,10.47C156.42,176.32,160.76,171.85,160.76,165.85z"/>
		<path class="st1" d="M207.93,179.78c-3.11-0.1-6.08-0.75-8.72-2.52c-0.56-0.37-1.08-0.82-1.56-1.31c-0.89-0.9-0.9-1.85-0.11-2.63
			c0.8-0.8,1.96-0.85,2.78-0.03c3.21,3.25,7.12,3.41,11.24,2.53c0.61-0.13,1.2-0.46,1.72-0.81c2.38-1.63,2.43-4.73-0.1-6.09
			c-1.72-0.92-3.72-1.38-5.64-1.83c-2.26-0.53-4.53-1-6.5-2.31c-4.09-2.7-4.12-8.19-0.08-10.96c4.22-2.89,11.42-2.46,15.26,0.92
			c0.51,0.45,1.07,0.93,1.33,1.52c0.24,0.54,0.36,1.45,0.06,1.84c-0.35,0.46-1.22,0.74-1.84,0.7c-0.55-0.03-1.13-0.54-1.57-0.97
			c-2.47-2.38-6.64-3.21-9.81-1.89c-1.49,0.62-2.65,1.6-2.68,3.34c-0.03,1.79,1.03,2.96,2.64,3.46c2.13,0.65,4.34,1.04,6.48,1.64
			c1.34,0.37,2.7,0.78,3.93,1.41c4.99,2.54,5.32,8.76,0.69,11.92C213.19,179.26,210.62,179.7,207.93,179.78z"/>
		<path class="st1" d="M180.17,173.97c1.05-2.28,1.99-4.34,2.94-6.39c2.07-4.54,4.15-9.07,6.22-13.61c0.08-0.18,0.16-0.36,0.25-0.54
			c0.58-1.18,1.48-1.58,2.5-1.09c1.05,0.5,1.32,1.36,0.76,2.62c-0.67,1.49-1.37,2.97-2.06,4.46c-2.8,6.04-5.61,12.09-8.41,18.13
			c-0.08,0.18-0.12,0.42-0.26,0.53c-0.62,0.5-1.2,1.21-1.91,1.38c-0.91,0.22-1.49-0.55-1.87-1.37c-1.47-3.14-2.95-6.28-4.44-9.42
			c-2.11-4.47-4.22-8.95-6.34-13.42c-0.37-0.79-0.64-1.58,0.01-2.35c1-1.17,2.43-0.9,3.13,0.6c2.94,6.33,5.86,12.67,8.79,19.01
			C179.67,172.91,179.86,173.31,180.17,173.97z"/>
		<path class="st1" d="M224.35,157.2c0-4.64,0-9.28,0-13.92c0-0.36-0.01-0.72,0.02-1.08c0.09-1.07,0.85-1.73,1.93-1.69
			c1.05,0.04,1.72,0.65,1.74,1.74c0.04,1.84,0.02,3.68,0.02,5.52c0,7.44-0.01,14.88,0.01,22.32c0,0.84,0.06,1.68,0.21,2.5
			c0.39,2.18,1.47,3.07,3.67,3.13c1.45,0.04,2.05,0.53,2.11,1.73c0.05,1.19-0.64,1.95-2,2.05c-2.7,0.19-4.85-0.78-6.3-3.12
			c-0.97-1.57-1.39-3.3-1.39-5.14C224.35,166.56,224.35,161.88,224.35,157.2C224.35,157.2,224.35,157.2,224.35,157.2z"/>
		<path class="st1" d="M340.66,155.85c2.64-2.84,5.71-4.17,9.43-3.92c0.9,0.06,1.81,0.31,2.65,0.63c0.78,0.29,1.19,0.95,0.98,1.83
			c-0.2,0.88-0.82,1.18-1.69,1.19c-1.75,0.02-3.54-0.14-5.24,0.18c-4.05,0.76-6.11,3.4-6.13,7.49c-0.01,4.67,0.01,9.35-0.01,14.02
			c-0.01,1.66-0.83,2.47-2.21,2.22c-1.15-0.21-1.52-0.98-1.52-2.08c0.02-5.15,0.01-10.31,0.01-15.46c0-2.56-0.01-5.11,0-7.67
			c0.01-1.36,0.6-2.04,1.77-2.09c1.22-0.05,1.89,0.63,1.95,2.03C340.68,154.76,340.66,155.31,340.66,155.85z"/>
		<path class="st1" d="M224.89,208.31c0.21,0.29,0.41,0.58,0.68,0.95c0.86-0.91,1.53-1.64,2.23-2.34c0.45-0.45,0.89-1.29,1.65-0.61
			c0.78,0.69-0.02,1.19-0.45,1.67c-0.66,0.74-1.35,1.46-2.15,2.31c1.07,1.04,2.1,2.02,3.11,3.02c0.39,0.38,0.93,0.78,0.33,1.39
			c-0.56,0.56-1.03,0.21-1.43-0.23c-0.95-1.02-1.88-2.07-2.95-3.26c-3.47,3.97-7.16,6.18-12.07,3.13c-2.24-2.38-2.32-5.28-0.23-7.87
			c1.01-1.25,1.99-2.52,2.98-3.77c0.2,0.14,0.4,0.29,0.6,0.43c-0.25-0.28-0.5-0.56-0.76-0.84c-0.57-0.62-1.2-1.18-1.69-1.85
			c-1.46-1.99-1.56-4.33-0.31-6.02c1.27-1.72,3.82-2.39,6.07-1.59c2.98,1.05,4.13,4.44,2.31,7.17c-0.81,1.21-1.95,2.18-2.74,3.03
			C221.62,204.73,223.26,206.52,224.89,208.31z M222.99,208.76c-1.51-1.56-3.02-3.13-4.53-4.69c-2.01,1.52-3.8,2.85-4.43,5.17
			c-0.48,1.8-0.03,3.03,1.51,4.11c2.99,1.7,6.25,0.51,8.9-3.24C223.96,209.67,223.47,209.21,222.99,208.76z M218.28,202.37
			c0.24,0.05,0.48,0.1,0.72,0.14c0.65-0.81,1.33-1.59,1.93-2.44c0.36-0.51,0.67-1.1,0.86-1.69c0.46-1.4-0.02-2.83-1.14-3.62
			c-1.11-0.79-2.84-0.82-3.96-0.06c-1.18,0.8-1.81,2.18-1.15,3.57C216.23,199.74,217.34,201.01,218.28,202.37z"/>
		<path class="st1" d="M364.58,165.85c0,3.76,0.01,7.52,0,11.28c0,1.56-0.68,2.39-1.91,2.38c-1.22-0.01-1.92-0.86-1.93-2.39
			c-0.01-7.52-0.01-15.04,0-22.56c0-1.52,0.72-2.38,1.94-2.38c1.22,0,1.89,0.83,1.89,2.39
			C364.58,158.33,364.58,162.09,364.58,165.85z"/>
		<path class="st1" d="M258.49,215.79c-1.33-0.65-0.42-1.96-0.86-2.91c-0.11,0.06-0.23,0.09-0.3,0.16
			c-2.74,2.96-6.78,3.68-10.25,1.83c-3.34-1.77-4.99-5.59-4.06-9.38c0.93-3.81,4.08-6.24,8.15-6.29c0.28,0,0.56-0.01,0.84-0.01
			c0.94,0.26,1.88,0.51,2.82,0.77c3.31,1.78,4.8,4.57,4.68,8.3c-0.07,2.34-0.04,4.69-0.05,7.03
			C259.13,215.45,258.81,215.62,258.49,215.79z M244.57,207.5c-0.01,3.83,2.83,6.74,6.6,6.73c3.73-0.01,6.56-2.87,6.57-6.64
			c0.01-3.8-2.77-6.68-6.48-6.71C247.44,200.86,244.58,203.68,244.57,207.5z"/>
		<path class="st1" d="M314.03,212.64c-0.07,0.19-0.09,0.42-0.21,0.56c-2.72,2.95-7.15,3.53-10.59,1.39
			c-3.32-2.06-4.68-6.29-3.26-10.1c1.36-3.66,5.2-5.83,9.13-5.17c4.24,0.72,6.96,3.81,7.03,8.09c0.04,2.32,0.01,4.63,0.02,6.95
			c0,0.66,0.01,1.4-0.9,1.37c-0.78-0.03-0.87-0.68-0.85-1.33c0.02-0.5,0-1.01,0-1.51C314.27,212.8,314.15,212.72,314.03,212.64z
			 M307.8,200.89c-3.79,0-6.6,2.86-6.6,6.72c0.01,3.76,2.85,6.62,6.58,6.63c3.73,0.01,6.58-2.85,6.6-6.62
			C314.4,203.76,311.59,200.89,307.8,200.89z"/>
		<path class="st1" d="M322.62,201.63c2.08-2.01,4.44-2.77,7.2-2.26c3.48,0.64,5.76,3.09,5.92,6.68c0.12,2.83,0.07,5.68,0,8.52
			c-0.01,0.4-0.56,0.79-0.86,1.18c-0.28-0.41-0.79-0.81-0.8-1.22c-0.08-2.56-0.01-5.12-0.05-7.68c-0.08-4.92-4.59-7.55-8.95-5.23
			c-1.65,0.88-2.58,2.22-2.57,4.14c0.01,2.84,0,5.68,0,8.52c0,0.65,0.02,1.43-0.86,1.45c-0.97,0.02-0.92-0.8-0.93-1.49
			c0-4.36-0.01-8.72,0-13.08c0-0.69-0.2-1.63,0.84-1.68c1.07-0.05,0.89,0.89,0.94,1.59C322.52,201.21,322.56,201.35,322.62,201.63z"
			/>
		<path class="st1" d="M345.78,215.83c-1.46-0.02-3.46-0.49-5.03-2.04c-0.3-0.3-0.52-1.11-0.34-1.37c0.45-0.63,1-0.26,1.49,0.2
			c1.8,1.67,5.49,2.15,7.66,1.03c0.95-0.49,1.55-1.23,1.57-2.36c0.03-1.12-0.59-1.85-1.53-2.21c-1.11-0.42-2.3-0.62-3.44-0.98
			c-1.25-0.39-2.59-0.66-3.68-1.33c-2.36-1.43-2.37-4.71-0.15-6.37c2.6-1.95,7.33-1.46,9.45,1.01c0.38,0.44,0.94,0.95,0.26,1.52
			c-0.58,0.49-1.08,0.16-1.54-0.34c-1.62-1.75-3.65-2.03-5.84-1.47c-1.42,0.36-2.22,1.33-2.24,2.48c-0.02,1.15,0.63,2.01,2.08,2.45
			c1.18,0.36,2.43,0.48,3.61,0.83c1.06,0.32,2.17,0.65,3.07,1.25c2.16,1.47,2.23,4.35,0.28,6.08
			C350.28,215.27,348.55,215.83,345.78,215.83z"/>
		<path class="st1" d="M282.99,199.92c1.1,0,2.02-0.03,2.94,0.01c0.7,0.03,1.77-0.33,1.79,0.8c0.01,1.25-1.13,0.82-1.85,0.86
			c-0.91,0.06-1.82,0.01-2.8,0.01c0,3.13-0.13,6.16,0.05,9.17c0.11,1.86,1.68,2.98,3.57,3.06c0.28,0.01,0.62-0.09,0.83,0.03
			c0.36,0.23,0.64,0.59,0.95,0.9c-0.33,0.33-0.62,0.9-0.99,0.96c-3.18,0.52-6.16-2.01-6.22-5.29c-0.06-2.87-0.01-5.75-0.01-8.76
			c-0.49-0.02-0.91-0.01-1.32-0.07c-0.68-0.09-1.76,0.36-1.77-0.81c-0.02-1.29,1.13-0.76,1.83-0.86c0.35-0.05,0.71-0.01,1.26-0.01
			c0-1.48,0.01-2.9,0-4.32c0-0.66-0.03-1.41,0.87-1.4c0.87,0,0.9,0.72,0.89,1.4C282.98,196.99,282.99,198.38,282.99,199.92z"/>
		<path class="st1" d="M359.79,199.92c1.26,0,2.42-0.07,3.55,0.04c0.43,0.04,0.81,0.52,1.22,0.79c-0.4,0.28-0.78,0.77-1.2,0.81
			c-1.14,0.11-2.29,0.04-3.52,0.04c0,3.11-0.12,6.1,0.04,9.08c0.11,1.89,1.69,3.08,3.62,3.15c0.24,0.01,0.54-0.08,0.71,0.03
			c0.38,0.26,0.7,0.61,1.05,0.92c-0.33,0.32-0.63,0.88-1.01,0.94c-3.15,0.49-6.1-1.99-6.2-5.2c-0.07-2.48-0.02-4.96-0.02-7.43
			c0-0.43,0-0.87,0-1.49c-0.78,0-1.49,0.09-2.17-0.04c-0.36-0.07-0.64-0.52-0.96-0.79c0.31-0.28,0.59-0.74,0.94-0.81
			c0.65-0.13,1.34-0.04,2.19-0.04c0-1.49,0.01-2.92,0-4.34c0-0.67-0.01-1.4,0.89-1.38c0.88,0.02,0.87,0.75,0.87,1.42
			C359.79,197.01,359.79,198.4,359.79,199.92z"/>
		<path class="st1" d="M294.89,208.42c0,2.43,0.05,4.87-0.01,7.3c-0.11,3.91-2.34,6.42-6.09,6.94c-0.35,0.05-0.75,0.12-1.06,0
			c-0.28-0.11-0.67-0.47-0.65-0.69c0.03-0.31,0.36-0.62,0.62-0.87c0.11-0.11,0.38-0.05,0.58-0.07c2.9-0.24,4.72-2.06,4.76-4.97
			c0.07-4.87,0.03-9.74,0.03-14.61c0-0.32-0.1-0.7,0.03-0.94c0.21-0.4,0.58-0.71,0.89-1.06c0.3,0.35,0.84,0.69,0.86,1.07
			c0.1,1.47,0.05,2.95,0.05,4.43C294.9,206.1,294.9,207.26,294.89,208.42C294.9,208.42,294.9,208.42,294.89,208.42z"/>
		<path class="st1" d="M263.48,211.45c0.01-5.71,0.01-11.43,0.03-17.14c0-0.71-0.29-1.75,0.84-1.77c1.16-0.02,0.88,1.03,0.88,1.73
			c0.01,5.4-0.02,10.79-0.01,16.19c0,0.51,0.12,1.01,0.19,1.52c0.38,1.61,0.8,1.93,2.4,2.13c0.36,0.05,0.68,0.48,1.01,0.73
			c-0.34,0.31-0.64,0.83-1.01,0.88c-1.77,0.25-3.38-0.91-3.99-2.76C263.65,212.48,263.59,211.96,263.48,211.45z"/>
		<path class="st1" d="M271.64,211.45c0.01-5.71,0.01-11.43,0.03-17.14c0-0.71-0.29-1.75,0.84-1.77c1.16-0.02,0.88,1.03,0.88,1.73
			c0.01,5.4-0.02,10.79-0.01,16.19c0,0.51,0.12,1.01,0.19,1.52c0.38,1.61,0.8,1.93,2.4,2.13c0.36,0.05,0.68,0.48,1.01,0.73
			c-0.34,0.31-0.64,0.83-1.01,0.88c-1.77,0.25-3.38-0.91-3.99-2.76C271.81,212.48,271.75,211.96,271.64,211.45z"/>
		<path class="st1" d="M132.7,97.13c-0.02-1.68,1.26-3.05,2.85-3.05c1.6,0,2.93,1.36,2.93,3.01c0,1.63-1.35,3-2.94,2.99
			C133.99,100.07,132.71,98.74,132.7,97.13z"/>
		<path class="st1" d="M125.94,97.18c0.01-1.64,1.29-2.9,2.9-2.86c1.56,0.04,2.82,1.3,2.85,2.84c0.02,1.58-1.28,2.9-2.88,2.92
			C127.18,100.1,125.93,98.83,125.94,97.18z"/>
		<path class="st1" d="M365.34,144.21c0,1.59-1.11,2.71-2.69,2.71c-1.55,0-2.68-1.14-2.67-2.72c0.01-1.56,1.15-2.66,2.75-2.63
			C364.27,141.59,365.34,142.67,365.34,144.21z"/>
		<path class="st2" d="M75.86,131.77c1.39-1.5,2.78-3,4.18-4.5c-0.99,3.4-2.3,6.65-3.96,9.76C76,135.28,75.93,133.53,75.86,131.77z"
			/>
		<path class="st1" d="M306.29,194.47c-0.03,0.98-0.53,1.51-1.45,1.6c-0.87,0.08-1.57-0.67-1.54-1.58c0.03-0.96,0.6-1.49,1.5-1.49
			C305.72,192.99,306.23,193.56,306.29,194.47z"/>
		<path class="st1" d="M312.29,194.41c-0.01,1.01-0.5,1.55-1.42,1.65c-0.86,0.1-1.58-0.65-1.57-1.55c0.02-0.96,0.57-1.5,1.47-1.52
			C311.69,192.97,312.22,193.53,312.29,194.41z"/>
		<path class="st1" d="M295.3,194.43c-0.02,0.81-0.48,1.38-1.37,1.38c-0.84,0.01-1.32-0.57-1.35-1.38
			c-0.03-0.89,0.51-1.44,1.39-1.45C294.79,192.98,295.27,193.48,295.3,194.43z"/>
		<path class="st3" d="M254.83,199.96c-0.94-0.26-1.88-0.51-2.82-0.77c0.76-0.71,1.52-1.42,2.34-2.18c0.61,0.4,1.23,0.81,1.97,1.3
			C255.79,198.88,255.31,199.42,254.83,199.96z"/>
		<path class="st0" d="M283.21,176.12c-3.9-0.31-7.15-3.2-8.22-7.3c-1.46-5.63,1.26-11.2,6.36-12.86c2.67-0.87,5.34-0.83,7.91,0.47
			c-0.13,0.46-0.25,0.91-0.38,1.37c-0.61,2.12-1.24,4.24-1.85,6.36c-0.59,2.06-1.11,4.14-1.76,6.17
			C284.65,172.28,283.9,174.19,283.21,176.12z"/>
		<path class="st0" d="M252.71,176.1c1.3-2.77,2.64-5.52,3.9-8.31c1.07-2.39,2.05-4.82,3.07-7.23
			C263.39,166.75,259.66,175.06,252.71,176.1z"/>
		<path class="st0" d="M99.11,124.85c-0.69-2.88-1.42-4.99-3.67-5.24c2.03-3.12,4.02-6.16,6-9.21c0.11,0.05,0.22,0.1,0.34,0.15
			c-2.04,4.9-1.04,9.91-0.75,14.91c0.08,1.3-0.02,2.65-0.32,3.91c-0.52,2.14-2.21,3.37-4.16,3.27c-2.47-0.12-4.59-1.68-5.05-3.72
			c-0.3-1.32,0.3-2.77,1.6-3.61C94.95,124.11,96.91,123.68,99.11,124.85z"/>
		<path class="st2" d="M215.54,213.35c0.94-0.33,1.95-0.53,2.8-1.02c1.52-0.88,2.95-1.92,4.4-2.93c0.16-0.11,0.17-0.43,0.24-0.65
			c0.49,0.45,0.97,0.91,1.45,1.36C221.79,213.86,218.53,215.05,215.54,213.35z"/>
		<path class="st0" d="M244.57,207.5c0.01-3.82,2.88-6.64,6.7-6.61c3.71,0.03,6.49,2.91,6.48,6.71c-0.01,3.77-2.84,6.63-6.57,6.64
			C247.4,214.24,244.55,211.33,244.57,207.5z"/>
	</g>
</g>
</svg>
