<?xml version="1.0" encoding="utf-8"?>
<!-- Generator: Adobe Illustrator 26.0.1, SVG Export Plug-In . SVG Version: 6.00 Build 0)  -->
<svg version="1.1" id="Lager_1" xmlns="http://www.w3.org/2000/svg" xmlns:xlink="http://www.w3.org/1999/xlink" x="0px" y="0px"
	 viewBox="0 0 648 563" style="enable-background:new 0 0 648 563;" xml:space="preserve">
<style type="text/css">
	.st0{fill:#C3C3C3;}
</style>
<path class="st0" d="M545.55,35H97.38c-30.05,0-54.41,24.36-54.41,54.42v379.16c0,30.06,24.36,54.42,54.41,54.42h448.17
	c30.05,0,54.42-24.36,54.42-54.42V89.42C599.97,59.36,575.6,35,545.55,35z M506.59,423.96c-5.54,5.54-13.19,8.96-21.64,8.96H157.98
	c-16.9,0-30.6-13.7-30.6-30.59c0-8.45,3.42-16.1,8.96-21.64c5.54-5.53,13.19-8.96,21.64-8.96h326.97c16.9,0,30.6,13.7,30.6,30.6
	C515.55,410.78,512.12,418.42,506.59,423.96z M506.59,300.64c-5.54,5.54-13.19,8.96-21.64,8.96H157.98c-16.9,0-30.6-13.7-30.6-30.6
	c0-8.45,3.42-16.1,8.96-21.64c5.54-5.54,13.19-8.96,21.64-8.96h326.97c16.9,0,30.6,13.7,30.6,30.6
	C515.55,287.45,512.12,295.1,506.59,300.64z M506.59,177.31c-5.54,5.53-13.19,8.96-21.64,8.96H157.98c-16.9,0-30.6-13.7-30.6-30.6
	c0-8.45,3.42-16.09,8.96-21.63c5.54-5.54,13.19-8.96,21.64-8.96h326.97c16.9,0,30.6,13.7,30.6,30.59
	C515.55,164.12,512.12,171.77,506.59,177.31z"/>
</svg>
